<svg width="41" height="36" viewBox="0 0 41 36" fill="none" xmlns="http://www.w3.org/2000/svg">
    <path
        d="M6.4 12H16.4V8H6.4V12ZM6.4 20H16.4V16H6.4V20ZM6.4 28H16.4V24H6.4V28ZM25.5 24L35.4 14.1L32.55 11.25L25.5 18.35L22.65 15.5L19.85 18.35L25.5 24ZM3 36C2.2 36 1.5 35.7 0.9 35.1C0.3 34.5 0 33.8 0 33V3C0 2.2 0.3 1.5 0.9 0.9C1.5 0.3 2.2 0 3 0H37.8C38.6 0 39.3 0.3 39.9 0.9C40.5 1.5 40.8 2.2 40.8 3V33C40.8 33.8 40.5 34.5 39.9 35.1C39.3 35.7 38.6 36 37.8 36H3ZM3 33H37.8V3H3V33ZM3 33V3V33Z"
        fill="#ffffff" />
</svg>